/* XPM */
static const char *icon_xpm[] = {
"32 32 2 1",
" 	c None",
".	c #101010",
"                                ",
"                                ",
"                                ",
"                                ",
"   ....... .                    ",
"  ..     ...                    ",
"  ..      ..                    ",
" ...       .                    ",
" ...       .                    ",
" .....                          ",
" .......                        ",
"  ........                      ",
"   ........                     ",
"    ........                    ",
"      .......                   ",
" .      .....                   ",
" .       .... .....  ..... .....",
" .        ...  ...    ...   ..  ",
" ..       ..   ...    ...   ..  ",
" ...     ...   ...    ....  ..  ",
" .........      ...  ..... ..   ",
"                ... .. ... ..   ",
"                ... ..  .. ..   ",
"                 ....   ....    ",
"                 ....   ....    ",
"                 ....   ....    ",
"                  ..     ..     ",
"                  ..     ..     ",
"                  ..     ..     ",
"                                ",
"                                ",
"                                "};
